<svg width="86" height="20" viewBox="0 0 86 20" fill="none" xmlns="http://www.w3.org/2000/svg">
<path d="M2.87988 8.36333C2.87988 4.01972 7.35043 0.5 12.8636 0.5C18.3769 0.5 22.842 4.01702 22.842 8.36063C22.842 12.7042 18.3742 16.224 12.8609 16.224C12.4369 16.224 12.0209 16.2023 11.6103 16.1618L6.75615 19.4276C6.44281 19.641 6.03493 19.3493 6.13217 18.9846L7.23968 14.8598C4.60867 13.4444 2.87988 11.0646 2.87988 8.36333Z" fill="black"/>
<path d="M40.1791 14.8533V16.2134H30.38V11.5384H32.0888V14.8533H40.1791Z" fill="black"/>
<path d="M28.8718 3.0165H35.6522C35.5869 7.14444 32.6685 9.87967 28.9873 10.8909L28.1416 9.53086C30.8116 8.96876 33.3636 7.07919 33.7952 4.44183H28.8718V3.0165Z" fill="black"/>
<path d="M41.9682 6.16829V7.59111H39.7801V12.6651H38.0712V1.87222H39.7801V6.16829H41.9682Z" fill="black"/>
<path d="M50.6239 2.99894V4.35902H42.8649V2.99894H50.6239Z" fill="black"/>
<path d="M55.0178 14.8533V16.2134H45.0531V11.8019H46.777V14.8533H55.0178Z" fill="black"/>
<path d="M52.9953 5.80192H50.9551V4.42678H52.9953V1.87222H54.7041V12.5823H52.9953V8.50452H50.9551V7.14444H52.9953V5.80192Z" fill="black"/>
<path d="M43.9565 5.26993L45.6152 5.12187V5.11937L45.831 9.33011L47.0079 9.29749H47.4721L47.7206 5.11937L49.3617 5.25236L48.9627 9.21468C49.9062 9.18206 50.654 9.09925 51.2337 8.99887L51.3667 10.3088C50.2902 10.492 48.6641 10.6074 46.9401 10.7078C45.5148 10.758 44.0393 10.8081 42.6792 10.8081L42.3982 9.36524H44.3053L43.9565 5.26993Z" fill="black"/>
<path d="M58.4454 2.71769H68.3273C68.3273 5.18944 68.1943 7.26219 67.8304 9.01876H70.1014V10.3939H64.2495V16.6448H62.5582V10.3939H56.754V9.01876H66.2043C66.4854 7.70886 66.6008 5.81929 66.6184 4.1104H58.4454V2.71769Z" fill="black"/>
<path d="M83.4315 1.87222V16.6475H81.7904V9.16951H80.3976V15.9499H78.7891V2.17084H80.3976V7.74167H81.7904V1.87222H83.4315Z" fill="black"/>
<path fill-rule="evenodd" clip-rule="evenodd" d="M71.4618 3.66392H77.3638V12.7328H71.4618V3.66392ZM73.0678 11.4054H75.7704V5.00644H73.0678V11.4054Z" fill="black"/>
</svg>
