<svg width="76" height="18" viewBox="0 0 76 18" fill="none" xmlns="http://www.w3.org/2000/svg">
    <g id="_&#235;&#160;&#136;&#236;&#157;&#180;&#236;&#150;&#180;_1" clip-path="url(#clip0_588_835)">
        <path id="Vector" d="M9.4294 0C4.22164 0 0 3.33537 0 7.44965C0 10.0086 1.63273 12.263 4.11928 13.6061L3.07323 17.5132C2.98086 17.8602 3.36782 18.1348 3.66491 17.9351L8.25104 14.8394C8.638 14.8768 9.03245 14.8993 9.4319 14.8993C14.6397 14.8993 18.8613 11.5639 18.8613 7.44965C18.8613 3.33537 14.6372 0 9.4294 0Z" fill="black"/>
        <g id="Clip path group">
            <mask id="mask0_588_835" style="mask-type:luminance" maskUnits="userSpaceOnUse" x="22" y="0" width="14" height="14">
                <g id="clippath-1">
                    <path id="Vector_2" d="M33.6095 13.8312V12.5195H25.8069V9.32246H24.1588V13.8312H33.6095ZM29.2435 1.10359H22.7043V2.47824H27.4526C27.0364 5.02183 24.5751 6.84421 22 7.38633L22.8156 8.69806C26.366 7.72273 29.1806 5.08476 29.2435 1.10359ZM35.3351 5.51797V4.14332H33.2247V0H31.5766V10.4091H33.2247V5.51555H35.3351V5.51797Z" fill="white"/>
                </g>
            </mask>
            <g mask="url(#mask0_588_835)">
                <g id="Group">
                    <path id="Vector_3" d="M36.5688 -1.23193H20.7725V15.0606H36.5688V-1.23193Z" fill="#191919"/>
                </g>
            </g>
        </g>
        <g id="Clip path group_2">
            <mask id="mask1_588_835" style="mask-type:luminance" maskUnits="userSpaceOnUse" x="35" y="0" width="13" height="14">
                <g id="clippath-2">
                    <path id="Vector_4" d="M43.6833 2.39838V1.08665H36.2002V2.39838H43.6833ZM47.921 13.8312V12.5195H39.9732V9.57658H38.3105V13.8312H47.921ZM44.0027 3.78997H45.9703V5.08476H44.0027V6.39648H45.9703V10.3292H47.6185V0H45.9703V2.46372H44.0027V3.78997ZM38.8526 3.13411L37.2529 3.2769L37.5893 7.2266H35.75L36.0211 8.61819C37.3328 8.61819 38.7558 8.56979 40.1305 8.52139C41.7931 8.42458 43.3614 8.31325 44.3997 8.13658L44.2714 6.87326C43.7123 6.97006 42.9911 7.04993 42.0811 7.08139L42.4659 3.25996L40.8832 3.13169L40.6436 7.16126H40.1958L39.0608 7.19272L38.8526 3.13169V3.13411Z" fill="white"/>
                </g>
            </mask>
            <g mask="url(#mask1_588_835)">
                <g id="Group_2">
                    <path id="Vector_5" d="M49.1484 -1.23169H34.5186V15.0608H49.1484V-1.23169Z" fill="#191919"/>
                </g>
            </g>
        </g>
        <g id="Clip path group_3">
            <mask id="mask2_588_835" style="mask-type:luminance" maskUnits="userSpaceOnUse" x="49" y="0" width="14" height="15">
                <g id="clippath-3">
                    <path id="Vector_6" d="M60.7594 0.815674H51.2288V2.15886H59.1113C59.0944 3.80699 58.983 5.62937 58.712 6.8927H49.5977V8.21895H55.1955V14.2476H56.8267V8.21895H62.4705V6.8927H60.2802C60.6312 5.19859 60.7594 3.19953 60.7594 0.815674Z" fill="white"/>
                </g>
            </mask>
            <g mask="url(#mask2_588_835)">
                <g id="Group_3">
                    <path id="Vector_7" d="M63.6999 -0.415771H48.3682V15.4774H63.6999V-0.415771Z" fill="#191919"/>
                </g>
            </g>
        </g>
        <g id="Clip path group_4">
            <mask id="mask3_588_835" style="mask-type:luminance" maskUnits="userSpaceOnUse" x="63" y="0" width="13" height="15">
                <g id="clippath-4">
                    <path id="Vector_8" d="M67.9347 9.19419H65.3282V3.02278H67.9347V9.19419ZM75.3235 14.2475V0H73.7407V5.66076H72.3975V0.287999H70.8462V13.5771H72.3975V7.03783H73.7407V14.2499H75.3235V14.2475ZM69.4715 1.72799H63.7793V10.4745H69.4715V1.72557V1.72799Z" fill="white"/>
                </g>
            </mask>
            <g mask="url(#mask3_588_835)">
                <g id="Group_4">
                    <path id="Vector_9" d="M76.5533 -1.23169H62.5479V15.4771H76.5533V-1.23169Z" fill="#191919"/>
                </g>
            </g>
        </g>
    </g>
    <defs>
        <clipPath id="clip0_588_835">
            <rect width="75.5676" height="18" fill="white"/>
        </clipPath>
    </defs>
</svg>
