<?xml version="1.0" standalone="no"?>
<!DOCTYPE svg PUBLIC "-//W3C//DTD SVG 1.1//EN" "http://www.w3.org/Graphics/SVG/1.1/DTD/svg11.dtd" >
<svg xmlns="http://www.w3.org/2000/svg">
<metadata>Generated by IcoMoon</metadata>
<defs>
<font id="im-icon" horiz-adv-x="1024">
<font-face units-per-em="1024" ascent="960" descent="-64" />
<missing-glyph horiz-adv-x="1024" />
<glyph unicode="&#x20;" horiz-adv-x="512" d="" />
<glyph unicode="&#xe900;" glyph-name="more" d="M568.896 732.448c-31.424 0-56.896 25.472-56.896 56.896s25.472 56.896 56.896 56.896c31.424 0 56.896-25.472 56.896-56.896s-25.472-56.896-56.896-56.896zM568.896 675.552c62.848 0 113.792 50.944 113.792 113.792s-50.944 113.792-113.792 113.792c-62.848 0-113.792-50.944-113.792-113.792s50.944-113.792 113.792-113.792zM568.896 391.104c-31.424 0-56.896 25.472-56.896 56.896s25.472 56.896 56.896 56.896c31.424 0 56.896-25.472 56.896-56.896s-25.472-56.896-56.896-56.896zM568.896 334.208c62.848 0 113.792 50.944 113.792 113.792s-50.944 113.792-113.792 113.792c-62.848 0-113.792-50.944-113.792-113.792s50.944-113.792 113.792-113.792zM512 106.688c0-31.424 25.472-56.896 56.896-56.896s56.896 25.472 56.896 56.896c0 31.424-25.472 56.896-56.896 56.896s-56.896-25.472-56.896-56.896zM682.688 106.688c0-62.848-50.944-113.792-113.792-113.792s-113.792 50.944-113.792 113.792c0 62.848 50.944 113.792 113.792 113.792s113.792-50.944 113.792-113.792z" />
<glyph unicode="&#xe901;" glyph-name="settings" d="M512 280.928c-91.616 0-167.072 75.456-167.072 167.072s75.456 167.072 167.072 167.072c91.616 0 167.072-75.456 167.072-167.072s-75.456-167.072-167.072-167.072zM512 561.184c-64.672 0-113.184-48.512-113.184-113.184s48.512-113.184 113.184-113.184c64.672 0 113.184 48.512 113.184 113.184s-48.512 113.184-113.184 113.184zM377.248-42.432c-5.376 0-10.784 0-16.16 0-75.456 21.568-140.128 59.296-194.016 113.184-16.16 16.16-21.568 43.104-10.784 64.672l43.104 80.832-43.104 75.456h-91.616c-26.944 0-48.512 16.16-53.888 43.104-5.376 37.728-10.784 75.456-10.784 113.184s5.376 75.456 10.784 113.184c5.376 21.568 26.944 43.104 53.888 43.104h91.616l43.104 75.456-43.104 80.832c-16.16 21.568-10.784 48.512 5.376 64.672 53.888 53.888 123.968 91.616 194.016 113.184 21.568 5.376 48.512 0 64.672-21.568l48.512-75.456h86.24l48.512 75.456c10.784 21.568 37.728 32.352 64.672 21.568 75.456-21.568 140.128-59.296 194.016-113.184 16.16-16.16 21.568-43.104 10.784-64.672l-43.104-80.832 43.104-75.456h91.616c26.944 0 48.512-16.16 53.888-43.104 0-37.728 5.376-75.456 5.376-113.184s-5.376-75.456-10.784-113.184c-5.376-21.568-26.944-43.104-53.888-43.104h-91.616l-43.104-75.456 43.104-80.832c10.784-21.568 5.376-48.512-10.784-64.672-53.888-53.888-123.968-91.616-194.016-113.184-21.568-5.376-48.512 0-64.672 21.568l-48.512 75.456h-80.832l-48.512-75.456c-5.376-10.784-26.944-21.568-43.104-21.568zM377.248 884.544c-64.672-21.568-123.968-53.888-177.856-102.4l53.888-91.616c5.376-10.784 5.376-16.16 0-26.944l-59.296-97.024c-5.376-10.784-16.16-16.16-21.568-16.16h-102.4c-10.784-32.352-16.16-70.048-16.16-102.4s5.376-70.048 10.784-102.4h102.4c10.784 0 16.16-5.376 21.568-10.784l59.296-102.4c5.376-10.784 5.376-16.16 0-26.944l-48.512-91.616c48.512-48.512 107.776-80.832 177.856-102.4l53.888 91.616c5.376 5.376 16.16 10.784 21.568 10.784h113.184c10.784 0 16.16-5.376 21.568-10.784l53.888-91.616c64.672 21.568 123.968 53.888 177.856 102.4l-48.512 91.616c-5.376 10.784-5.376 16.16 0 26.944l59.296 102.4c5.376 10.784 10.784 10.784 21.568 10.784h102.4c10.784 32.352 10.784 70.048 10.784 102.4s-5.376 70.048-10.784 102.4h-102.4c-10.784 0-16.16 5.376-21.568 10.784l-59.296 102.4c-5.376 10.784-5.376 16.16 0 26.944l48.512 91.616c-48.512 48.512-107.776 80.832-177.856 102.4l-53.888-91.616c-5.376-5.376-16.16-10.784-21.568-10.784h-113.184c-5.376 0-16.16 5.376-21.568 10.784l-53.888 91.616z" />
<glyph unicode="&#xe902;" glyph-name="global" d="M540.448 960c-5.696 0-11.392 0-17.056 0h-5.696c0 0 0 0-5.696 0-284.448 0-512-227.552-512-512s227.552-512 512-512c5.696 0 5.696 0 11.392 0h5.696c5.696 0 11.392 0 17.056 0 267.392 17.056 483.552 238.944 483.552 512-5.696 273.056-221.856 494.944-489.248 512zM523.392 903.104c5.696 0 11.392 0 11.392 0 39.808-5.696 85.344-45.504 125.152-125.152 22.752-45.504 39.808-102.4 51.2-170.656h-369.792c11.392 68.256 28.448 125.152 51.2 170.656 39.808 79.648 85.344 125.152 130.848 125.152zM716.8 550.4c5.696-34.144 5.696-68.256 5.696-102.4 0-39.808 0-79.648-5.696-113.792h-381.152c-5.696 34.144-5.696 73.952-5.696 113.792 0 34.144 0 68.256 5.696 102.4h381.152zM392.544 886.048c-17.056-22.752-34.144-51.2-51.2-85.344-22.752-56.896-45.504-119.456-56.896-193.408h-199.104c51.2 136.544 164.992 244.608 307.2 278.752zM56.896 448c0 34.144 5.696 68.256 11.392 102.4h210.496c-5.696-34.144-5.696-68.256-5.696-102.4 0-39.808 0-79.648 5.696-113.792h-204.8c-11.392 34.144-17.056 73.952-17.056 113.792h-0.032zM91.008 277.344h193.408c11.392-68.256 28.448-130.848 56.896-182.048 17.056-34.144 34.144-62.592 51.2-85.344-136.544 34.144-250.304 136.544-301.504 267.392zM534.752-7.104c-5.696 0-11.392 0-11.392 0-45.504 0-91.008 39.808-130.848 125.152-22.752 45.504-39.808 96.704-45.504 159.296h364.096c-11.392-62.592-28.448-113.792-45.504-159.296-45.504-79.648-85.344-119.456-130.848-125.152zM665.6 21.344c17.056 22.752 28.448 45.504 45.504 73.952 22.752 51.2 39.808 113.792 56.896 182.048h164.992c-45.504-119.456-142.208-210.496-267.392-256zM967.104 448c0-39.808-5.696-79.648-17.056-113.792h-176.352c5.696 39.808 5.696 73.952 5.696 113.792 0 34.144 0 68.256-5.696 102.4h182.048c5.696-34.144 11.392-68.256 11.392-102.4h-0.032zM768 607.296c-11.392 73.952-28.448 136.544-56.896 193.408-11.392 28.448-28.448 51.2-45.504 73.952 125.152-45.504 221.856-142.208 267.392-267.392l-164.992 0.032z" />
<glyph unicode="&#xe903;" glyph-name="bell" d="M984.192 192l-113.792 182.048v227.552c0 96.704-39.808 182.048-102.4 250.304-73.952 68.256-159.296 102.4-256 102.4s-182.048-39.808-250.304-102.4c-68.256-68.256-108.096-153.6-108.096-250.304v-233.248l-113.792-182.048c-5.696-5.696-5.696-17.056-5.696-28.448s0-17.056 5.696-28.448c5.696-5.696 11.392-17.056 17.056-17.056 5.696-5.696 17.056-5.696 28.448-5.696h210.496c22.752-96.704 108.096-170.656 216.192-170.656 102.4 0 193.408 73.952 216.192 170.656h210.496c11.392 0 17.056 0 28.448 5.696 5.696 5.696 17.056 11.392 17.056 17.056 5.696 5.696 5.696 17.056 5.696 28.448 0 17.056-5.696 22.752-5.696 34.144zM512-1.408c-73.952 0-136.544 45.504-153.6 113.792h307.2c-17.056-68.256-79.648-113.792-153.6-113.792zM785.056 169.248h-688.352l113.792 176.352 5.696 5.696v250.304c0 79.648 34.144 153.6 85.344 210.496 56.896 56.896 130.848 85.344 210.496 85.344s153.6-34.144 210.496-85.344c56.896-56.896 85.344-130.848 85.344-210.496v-244.608l5.696-5.696 113.792-176.352h-142.208l-0.096-5.696z" />
<glyph unicode="&#xe904;" glyph-name="delete" d="M803.552 871.104h-568.896v56.896h568.896v-56.896zM149.344 757.344h-85.344v56.896h910.208v-56.896h-85.344v-711.104c0-47.136-38.208-85.344-85.344-85.344h-568.896c-47.136 0-85.344 38.208-85.344 85.344v711.104h0.064zM206.208 757.344v-711.104c0-15.712 12.736-28.448 28.448-28.448h568.896c15.712 0 28.448 12.736 28.448 28.448v711.104h-625.792zM320 103.104v597.344h56.896v-597.344h-56.896zM490.656 103.104v597.344h56.896v-597.344h-56.896zM661.344 103.104v597.344h56.896v-597.344h-56.896z" />
<glyph unicode="&#xe905;" glyph-name="arrow-long-left" horiz-adv-x="1769" d="M249.451 513.15l349.558 349.558-92.155 92.156-506.854-506.854 506.854-506.852 92.155 92.153-349.512 349.512h1513.616v130.327h-1513.663z" />
<glyph unicode="&#xe906;" glyph-name="arrow-long-right" horiz-adv-x="1862" d="M1592.087 503.832l-365.447 365.45 78.988 78.99 500.271-500.272-500.271-500.271-78.988 78.988 365.4 365.406h-1536.086v111.709h1536.133z" />
<glyph unicode="&#xe907;" glyph-name="check" horiz-adv-x="1252" d="M470.508 293.766l602.163 616.067 130.188-127.247-732.359-749.266-421.833 431.624 130.193 127.24 291.648-298.417z" />
<glyph unicode="&#xe908;" glyph-name="minus-plain" d="M0 524.8h1024v-153.6h-1024v153.6z" />
<glyph unicode="&#xe909;" glyph-name="plus-plain" d="M1024 524.8h-435.2v435.2h-153.6v-435.2h-435.2v-153.6h435.2v-435.2h153.6v435.2h435.2v153.6z" />
<glyph unicode="&#xe90a;" glyph-name="equals-solid" d="M512 960c-282.624 0-512-229.376-512-512s229.376-512 512-512c282.624 0 512 229.376 512 512s-229.376 512-512 512zM755.2 281.6h-486.4v102.4h486.4v-102.4zM755.2 512h-486.4v102.4h486.4v-102.4z" />
<glyph unicode="&#xe90b;" glyph-name="minus-solid" d="M512 960c-282.624 0-512-229.376-512-512s229.376-512 512-512c282.624 0 512 229.376 512 512s-229.376 512-512 512zM755.2 396.8h-486.4v102.4h486.4v-102.4z" />
<glyph unicode="&#xe90c;" glyph-name="plus-solid" d="M512 960c-282.624 0-512-229.376-512-512s229.376-512 512-512c282.624 0 512 229.376 512 512s-229.376 512-512 512zM755.2 396.8h-192v-192h-102.4v192h-192v102.4h192v192h102.4v-192h192v-102.4z" />
<glyph unicode="&#xe90d;" glyph-name="equals-plain" d="M0 780.8h1024v-153.6h-1024v153.6zM0 268.8h1024v-153.6h-1024v153.6z" />
<glyph unicode="&#xe90e;" glyph-name="circle-arrow-right" d="M512 881.216c238.656 0 433.216-194.56 433.216-433.216s-194.56-433.216-433.216-433.216c-238.656 0-433.216 194.56-433.216 433.216s194.56 433.216 433.216 433.216zM512 960c-282.784 0-512-229.216-512-512s229.216-512 512-512c282.784 0 512 229.216 512 512s-229.216 512-512 512zM435.584 213.28l-55.136 55.936 179.584 179.584-178.016 178.016 55.936 55.936 233.952-233.952-236.32-235.52z" />
<glyph unicode="&#xe90f;" glyph-name="mappin" d="M512 320c159.36 0 288 128.64 288 288s-128.64 288-288 288c-159.36 0-288-128.64-288-288s128.64-288 288-288zM864 608c0-183.68-140.8-334.72-320-350.72v-321.28h-64v321.28c-179.2 16-320 167.040-320 350.72 0 194.56 157.44 352 352 352s352-157.44 352-352zM448 704c0-17.92-14.080-32-32-32s-32 14.080-32 32c0 17.92 14.080 32 32 32s32-14.080 32-32zM512 704c0-53.12-42.88-96-96-96s-96 42.88-96 96c0 53.12 42.88 96 96 96s96-42.88 96-96z" />
<glyph unicode="&#xe910;" glyph-name="circle-delete" d="M512 891.744c244.384 0 443.744-199.328 443.744-443.744s-199.328-443.744-443.744-443.744c-244.416 0-443.744 199.328-443.744 443.744s199.328 443.744 443.744 443.744zM512 960c-282.624 0-512-229.376-512-512s229.376-512 512-512c282.624 0 512 229.376 512 512s-229.376 512-512 512zM729.088 616.608l-48.48 48.48-168.608-168.608-168.608 168.608-48.48-48.48 168.608-168.608-168.608-168.608 48.48-48.48 168.608 168.608 168.608-168.608 48.48 48.48-168.608 168.608 168.608 168.608z" />
<glyph unicode="&#xe911;" glyph-name="outline-alert" d="M512 960c-282.88 0-512-229.12-512-512s229.12-512 512-512c282.88 0 512 229.12 512 512s-229.12 512-512 512zM512-21.344c-258.976 0-469.344 210.336-469.344 469.344s210.336 469.344 469.344 469.344c259.008 0 469.344-210.336 469.344-469.344s-210.336-469.344-469.344-469.344zM543.136 358.4l5.12 322.144h-72.544l5.12-322.144h62.304zM511.584 301.216c-23.456 0-43.104-18.336-43.104-42.656s20.064-43.52 43.104-43.52c24.736 0 43.936 18.784 43.936 43.52s-19.2 42.656-43.936 42.656z" />
<glyph unicode="&#xe912;" glyph-name="under" horiz-adv-x="1195" d="M170.667 874.667v85.333h-170.667v-1024.176l1024.176 0.009v170.667h-853.509v768.167z" />
<glyph unicode="&#xe913;" glyph-name="chains" d="M508.128 790.656c70.368 70.368 184.416 70.368 254.752 0s70.368-184.416 0-254.752l-23.84-23.84-40.224 40.224 23.84 23.84c48.128 48.128 48.128 126.176 0 174.304s-126.176 48.128-174.304 0l-178.784-178.784c-48.128-48.128-48.128-126.176 0-174.304s126.176-48.128 174.304 0l89.376 89.376 40.224-40.224-89.376-89.376c-70.336-70.368-184.416-70.368-254.784 0s-70.336 184.416 0 254.752l178.816 178.784zM512.576 106.816c-70.336-70.336-184.416-70.336-254.784 0s-70.368 184.416 0 254.784l23.84 23.84 40.224-40.224-23.84-23.84c-48.128-48.128-48.128-126.176 0-174.304s126.176-48.128 174.304 0l178.784 178.784c48.128 48.128 48.128 126.176 0 174.304s-126.176 48.128-174.304 0l-89.376-89.408-40.224 40.224 89.376 89.376c70.368 70.368 184.416 70.368 254.752 0s70.368-184.416 0-254.784l-178.752-178.752z" />
<glyph unicode="&#xe914;" glyph-name="check-solid" d="M1024 448c0-135.776-53.952-266.016-149.952-362.048s-226.24-149.952-362.048-149.952c-135.776 0-266.016 53.952-362.048 149.952s-149.952 226.24-149.952 362.048c0 135.776 53.952 266.016 149.952 362.048s226.24 149.952 362.048 149.952c135.776 0 266.016-53.952 362.048-149.952s149.952-226.24 149.952-362.048zM769.92 641.92c-4.576 4.544-10.016 8.128-16 10.56s-12.416 3.584-18.848 3.456c-6.464-0.128-12.8-1.568-18.688-4.224s-11.168-6.464-15.552-11.2l-222.272-283.2-133.952 134.016c-9.088 8.48-21.12 13.088-33.568 12.864s-24.288-5.248-33.088-14.048c-8.8-8.8-13.824-20.672-14.048-33.088s4.384-24.48 12.864-33.568l169.344-169.408c4.576-4.544 9.984-8.128 15.968-10.56s12.384-3.584 18.816-3.456c6.432 0.128 12.8 1.536 18.688 4.16s11.168 6.432 15.584 11.136l255.488 319.36c8.704 9.056 13.536 21.152 13.408 33.728s-5.152 24.576-14.048 33.472h-0.096z" />
<glyph unicode="&#xe915;" glyph-name="alert-solid" d="M512-64c282.784 0 512 229.216 512 512s-229.216 512-512 512c-282.784 0-512-229.216-512-512s229.216-512 512-512zM551.168 345.216h-76.8l-12.288 393.984h99.84l-10.752-393.984zM558.848 181.632h-92.16v89.856h92.16v-89.856z" />
<glyph unicode="&#xe916;" glyph-name="close" d="M954.889 927.243l10.647 10.648 21.296-21.296-453.536-453.536 481.455-481.452-21.299-21.296-481.452 481.452-481.453-481.452-21.297 21.296 481.453 481.452-453.536 453.536 21.296 21.296 453.536-453.537 442.889 442.888z" />
<glyph unicode="&#xe917;" glyph-name="increment" d="M426.467 28.333c0-43.482 35.248-78.733 78.733-78.733 43.482 0 78.733 35.251 78.733 78.733v347.734h347.734c43.482 0 78.733 35.251 78.733 78.733 0 43.485-35.251 78.733-78.733 78.733h-347.734v347.735c0 43.483-35.251 78.732-78.733 78.732-43.485 0-78.733-35.25-78.733-78.732v-347.735h-347.735c-43.483 0-78.732-35.248-78.732-78.733 0-43.482 35.25-78.733 78.732-78.733h347.735v-347.734z" />
<glyph unicode="&#xe918;" glyph-name="download" d="M504.064 186.029v773.971h42.63v-759.299l274.605 274.605 30.144-30.144-333.402-333.402-333.401 333.402 30.145 30.144 289.278-289.277zM36.008 233.12v-283.517h970.015v283.517h-42.064v-241.453h-885.886v241.453h-42.065z" />
<glyph unicode="&#xe919;" glyph-name="extinction" d="M206.068 960c44.055 0 79.768-35.714 79.768-79.768v-850.862c0-44.054-35.714-79.766-79.768-79.766s-79.768 35.712-79.768 79.766v850.862c0 44.055 35.714 79.768 79.768 79.768zM525.142 534.57c44.054 0 79.766-35.715 79.766-79.77v-425.43c0-44.054-35.712-79.766-79.766-79.766s-79.77 35.712-79.77 79.766v425.43c0 44.054 35.715 79.77 79.77 79.77zM923.984 242.086c0 44.054-35.715 79.766-79.77 79.766s-79.766-35.712-79.766-79.766v-212.717c0-44.054 35.712-79.766 79.766-79.766s79.77 35.712 79.77 79.766v212.717z" />
<glyph unicode="&#xe91a;" glyph-name="remaining" d="M460.8 854.426c-103.286-13.142-197.691-65.12-264.029-145.368s-99.63-182.744-93.111-286.658c6.52-103.914 52.363-201.446 128.211-272.774s176.010-111.098 280.128-111.226c99.77 0.003 196.109 36.413 270.938 102.4s123.005 157.014 135.488 256h-406.426c-13.578 0-26.602 5.395-36.205 14.995-9.6 9.603-14.995 22.627-14.995 36.205v406.426zM563.2 854.426v-355.226h355.226c-11.395 90.234-52.486 174.114-116.8 238.426-64.31 64.312-148.192 105.403-238.426 116.799zM0 448c0 282.778 229.222 512 512 512s512-229.222 512-512c0-282.778-229.222-512-512-512s-512 229.222-512 512z" />
<glyph unicode="&#xe91b;" glyph-name="decrement" d="M0 450.733c0 51.51 41.757 93.267 93.268 93.267h823.862c51.51 0 93.267-41.757 93.267-93.267s-41.757-93.267-93.267-93.267h-823.862c-51.51 0-93.268 41.757-93.268 93.267z" />
<glyph unicode="&#xe91c;" glyph-name="arrow-left" d="M270.282 946.367c19.043 18.177 49.916 18.177 68.96 0l487.619-465.455c19.043-18.176 19.043-47.648 0-65.824l-487.619-465.456c-19.043-18.176-49.917-18.176-68.96 0-19.043 18.179-19.043 47.648 0 65.827l453.139 432.541-453.139 432.542c-19.043 18.177-19.043 47.648 0 65.825z" />
<glyph unicode="&#xe91d;" glyph-name="imweb" d="M767.194 327.69c48.941 54.070 81.366 122.134 93.146 195.52s2.381 148.774-26.998 216.562c-29.379 67.788-77.411 124.906-137.978 164.081-60.563 39.175-130.922 58.632-202.112 55.894-71.187-2.738-139.984-27.548-197.628-71.27s-101.523-104.375-126.050-174.236c-24.527-69.861-28.592-145.766-11.677-218.051 16.916-72.282 54.045-137.667 106.661-187.834-19.193-66.57-61.416-136.874-113.788-204.32-67.937-87.498 28.868-208.717 123.464-154.614 271.588 155.658 444.743 327.629 484.548 368.986 0.842 0.934 8.413 9.283 8.413 9.283z" />
<glyph unicode="&#xe91e;" glyph-name="help" d="M512.179 890.332c-240.73 1.129-442.461-200.546-442.631-441.941-0.174-240.643 200.638-442.467 442.148-442.627 241.162-0.147 442.509 201.146 442.637 442.147 0.128 241.028-201.056 443.247-442.154 442.421zM1024 448.038c-1.168-285.875-234.317-512.33-512.49-511.827-281.235 0.518-510.801 229.037-511.509 511.402-0.693 276.627 224.253 511.92 511.72 512.388 281.098 0.452 511.504-228.94 512.278-511.962zM298.5 563.818c5.569 32.704 17.482 61.36 36.086 86.593 49.994 67.812 118.314 94.009 201.254 87.68 50.333-3.844 96.438-18.144 136.288-49.396 42.314-33.198 57.696-78.816 57.398-131.040-0.304-53.037-25.818-92.387-66.506-123.757-29.066-22.403-58.486-44.403-86.525-68.032-16.307-13.75-25.741-32.608-29.498-54.141-0.586-3.376-5.898-8.269-9.232-8.438-17.062-0.858-34.195-0.214-51.296-0.48-7.283-0.118-9.85 2.528-9.12 9.939 4.8 49.085 27.203 88.246 65.824 118.528 29.885 23.424 59.539 47.149 89.478 70.502 43.613 34.022 33.094 112.41-15.885 141.947-48.992 29.548-139.283 40.060-194.394-2.274-26-19.967-44.493-44.771-52.275-76.687-2.704-11.094-6.493-14.618-18.358-11.389-17.091 4.656-34.82 6.96-53.241 10.445zM563.536 192.035c0.531-27.645-22.224-51.011-50.726-52.083-27.517-1.046-52.115 23.059-52.464 51.402-0.336 27.462 22.966 51.088 51.062 51.779 26.71 0.656 51.603-23.744 52.128-51.098z" />
<glyph unicode="&#xe91f;" glyph-name="refresh" d="M753.084 689.067c-61.867 61.867-146.773 100.267-241.066 100.267-188.587 0-340.907-152.747-340.907-341.333s152.32-341.333 340.907-341.333c159.146 0 291.839 108.8 329.813 256h-88.747c-34.987-99.413-129.707-170.667-241.066-170.667-141.227 0-256 114.773-256 256s114.773 256 256 256c70.826 0 133.973-29.44 180.053-75.947l-137.386-137.387h298.666v298.667l-100.267-100.267z" />
<glyph unicode="&#xe920;" glyph-name="substract" d="M471.748 447.977l-168.519 168.519 40.227 40.227 168.518-168.519 168.52 168.519 40.226-40.227-168.519-168.519 168.519-168.516-40.226-40.226-168.52 168.516-168.518-168.516-40.227 40.226 168.519 168.516z" />
<glyph unicode="&#xe921;" glyph-name="cart" horiz-adv-x="1144" d="M0 929.882h182.491c45.919 0 85.108-33.198 92.656-78.492l0.059-0.355 11.23-72.746h752.032c37.906 0 66.946-33.706 61.344-71.199l-0.114-0.748-64.885-370.098c-7.054-45.797-46.466-79.631-92.841-79.631h-547.832c-46.388 0-85.81 33.858-92.845 79.667l-70.452 407.294-15.137 98.061c-2.769 16.173-16.792 28.010-33.216 28.010h-182.491v60.235zM296.387 718.055l64.432-372.491c2.468-16.504 16.635-28.714 33.322-28.714h547.832c16.691 0 30.865 12.21 33.328 28.714l0.114 0.747 64.837 369.834c0.072 1.023-0.741 1.909-1.783 1.909h-742.082zM459.483 109.327c-18.612 0-33.699-15.089-33.699-33.702s15.088-33.696 33.699-33.696c18.612 0 33.7 15.083 33.7 33.696s-15.088 33.702-33.7 33.702zM365.549 75.625c0 51.881 42.056 93.937 93.935 93.937s93.935-42.056 93.935-93.937c0-51.881-42.056-93.931-93.935-93.931s-93.935 42.050-93.935 93.931zM874.297 109.327c-18.613 0-33.702-15.089-33.702-33.702s15.089-33.696 33.702-33.696c18.607 0 33.696 15.083 33.696 33.696s-15.089 33.702-33.696 33.702zM780.36 75.625c0 51.881 42.056 93.937 93.937 93.937 51.875 0 93.931-42.056 93.931-93.937s-42.056-93.931-93.931-93.931c-51.881 0-93.937 42.050-93.937 93.931z" />
<glyph unicode="&#xe922;" glyph-name="like" horiz-adv-x="1084" d="M542.118 857.828c84.323 71.366 204.686 88.702 306.507 56.453 112.857-35.746 205.493-133.218 205.493-287.060 0-193.025-128.56-358.343-250.476-472.453-61.633-57.681-123.133-103.749-169.177-135.379-23.046-15.836-42.298-28.106-55.848-36.448-6.776-4.174-12.133-7.367-15.833-9.541-1.85-1.090-3.287-1.922-4.28-2.488l-1.154-0.663-0.415-0.235c-0.011-0.006-0.051-0.030-14.817 26.22-14.765-26.251-14.775-26.245-14.785-26.238l-0.126 0.072-0.32 0.181-1.154 0.663c-0.993 0.566-2.429 1.397-4.28 2.488-3.7 2.174-9.056 5.367-15.833 9.541-13.55 8.343-32.799 20.613-55.849 36.448-46.044 31.63-107.545 77.698-169.174 135.379-121.917 114.11-250.478 279.427-250.478 472.453 0 153.842 92.633 251.314 205.495 287.060 101.823 32.249 222.184 14.913 306.505-56.453zM542.118-3.765l-14.785-26.238 14.785-8.318 14.817 8.337-14.817 26.22zM542.118 31.226c1.53 0.928 3.17 1.934 4.913 3.006 12.803 7.885 31.201 19.607 53.328 34.804 44.31 30.443 103.281 74.638 162.118 129.711 119.025 111.399 231.406 261.574 231.406 428.475 0 124.945-73.011 200.994-163.448 229.636-92.335 29.245-200.306 8.238-266.532-61.137l-21.785-22.82-21.785 22.82c-66.228 69.375-174.197 90.382-266.533 61.137-90.433-28.642-163.447-104.691-163.447-229.636 0-166.901 112.38-317.076 231.404-428.475 58.842-55.073 117.811-99.268 162.12-129.711 22.126-15.197 40.524-26.919 53.328-34.804 1.743-1.072 3.382-2.078 4.913-3.006z" />
<glyph unicode="&#xe923;" glyph-name="review" d="M512 869.647c-232.869 0-421.647-188.778-421.647-421.647s188.778-421.647 421.647-421.647c74.336 0 144.095 19.209 204.674 52.917 13.83 7.692 30.581 10.15 46.682 5.548l156.558-44.731-44.731 156.558c-4.602 16.101-2.144 32.852 5.548 46.682 33.708 60.579 52.917 130.338 52.917 204.674 0 232.869-188.777 421.647-421.647 421.647zM30.118 448c0 266.136 215.746 481.882 481.882 481.882 266.138 0 481.882-215.746 481.882-481.882 0-84.845-21.956-164.653-60.512-233.96-0.283-0.512-0.265-0.825-0.265-0.873l44.725-156.533c12.981-45.435-29.027-87.444-74.463-74.463l-156.564 44.731c0.036-0.012 0.048-0.012 0.030-0.006-0.048 0-0.361 0.018-0.873-0.265-69.307-38.557-149.115-60.512-233.96-60.512-266.136 0-481.882 215.745-481.882 481.882z" />
<glyph unicode="&#xe924;" glyph-name="liked" horiz-adv-x="967" d="M773.035 890.481c-96.165 30.458-209.842 14.085-289.479-53.316-79.637 67.401-193.311 83.774-289.477 53.316-106.591-33.76-194.078-125.817-194.078-271.112 0-182.302 121.419-338.434 236.563-446.205 58.205-54.477 116.289-97.985 159.775-127.858 21.77-14.956 39.949-26.544 52.746-34.423 6.4-3.942 11.459-6.963 14.953-9.011 1.748-1.030 3.104-1.815 4.042-2.35l1.090-0.626 0.303-0.171 0.119-0.068 13.964-7.856 15.476 8.721c0.938 0.535 2.294 1.32 4.042 2.35 3.494 2.048 8.553 5.069 14.953 9.011 12.797 7.879 30.977 19.467 52.745 34.423 43.486 29.872 101.569 73.381 159.778 127.858 115.143 107.77 236.561 263.902 236.561 446.205 0 145.295-87.489 237.352-194.076 271.112z" />
<glyph unicode="&#xe925;" glyph-name="new-tab" d="M0 854.674c0 58.17 47.156 105.326 105.326 105.326h357.912c17.776 0 32.182-14.409 32.182-32.183s-14.406-32.183-32.182-32.183h-357.912c-22.622 0-40.96-18.339-40.96-40.96v-813.343c0-22.621 18.339-40.96 40.96-40.96h813.349c22.621 0 40.96 18.339 40.96 40.96v357.907c0 17.773 14.406 32.182 32.182 32.182 17.773 0 32.182-14.41 32.182-32.182v-357.907c0-58.17-47.155-105.325-105.325-105.325h-813.349c-58.17 0-105.326 47.155-105.326 105.325v813.343zM973.613 909.622c12.57-12.568 12.57-32.945 0-45.514l-536.381-536.38c-12.57-12.57-32.944-12.57-45.514 0-12.566 12.566-12.566 32.944 0 45.51l536.381 536.383c12.57 12.568 32.947 12.568 45.514 0zM635.853 927.817c0 17.774 14.41 32.183 32.182 32.183h250.637c58.17 0 105.328-47.156 105.328-105.326v-245.759c0-17.776-14.41-32.186-32.186-32.186-17.773 0-32.182 14.41-32.182 32.186v245.759c0 22.621-18.339 40.96-40.96 40.96h-250.637c-17.773 0-32.182 14.409-32.182 32.183z" />
<glyph unicode="&#xe926;" glyph-name="URL-copy" d="M871.792 626.646c0 7.68-3.053 15.046-8.483 20.476l-248.186 248.188c-5.43 5.43-12.797 8.481-20.477 8.481h-318.155c-20.695 0-37.472-16.777-37.472-37.472v-706.866c0-20.694 16.777-37.472 37.472-37.472h557.828c20.694 0 37.472 16.778 37.472 37.472v467.194zM928 159.453c0-51.738-41.942-93.68-93.68-93.68h-557.828c-51.739 0-93.681 41.942-93.681 93.68v706.866c0 51.739 41.942 93.681 93.681 93.681h318.155c22.589 0 44.25-8.973 60.221-24.944l248.189-248.187c15.971-15.972 24.944-37.634 24.944-60.222v-467.194zM639.398 932.215v-225.047c0-19.755 16.016-35.769 35.77-35.769h225.050v-56.209h-225.050c-50.797 0-91.978 41.18-91.978 91.978v225.047h56.208zM52.616 737.397c0 50.798 41.18 91.978 91.978 91.978h62.17v-56.209h-62.17c-19.755 0-35.769-16.014-35.769-35.769v-709.42c0-19.757 16.014-35.77 35.769-35.77h561.234c19.754 0 35.766 16.013 35.766 35.77v51.098h56.211v-51.098c0-50.8-41.181-91.978-91.978-91.978h-561.234c-50.798 0-91.978 41.181-91.978 91.978v709.42z" />
<glyph unicode="&#xe927;" glyph-name="notice-solid" d="M527.357 919.040c-184.317 92.159-399.357 0-399.357 0v-983.040h61.44v511.699c77.162 20.576 214.436 41.565 337.917-20.176 184.32-92.154 399.36 0 399.36 0v491.517c0 0-215.040-92.16-399.36 0z" />
<glyph unicode="&#xe928;" glyph-name="bell-solid" d="M346.784 84.163c28.602-53.152 84.755-89.29 149.347-89.29s120.739 36.138 149.341 89.29h64.531c-32.467-86.557-115.974-148.163-213.872-148.163-97.901 0-181.41 61.606-213.879 148.163h64.532zM231.19 142.845h-175.34c-4.266 0.058-8.439 1.248-12.097 3.437-3.659 2.195-6.672 5.315-8.735 9.050-2.063 3.731-3.102 7.949-3.012 12.211s1.306 8.429 3.524 12.074l121.92 193.526v248.179c0 89.826 35.684 175.971 99.197 239.483 63.513 63.514 149.66 99.196 239.484 99.196 89.818 0 175.965-35.682 239.478-99.196 63.514-63.511 99.197-149.657 99.197-239.483v-248.179l121.923-193.526c2.221-3.645 3.434-7.811 3.52-12.074 0.096-4.262-0.947-8.48-3.008-12.211-2.067-3.734-5.082-6.854-8.736-9.050-3.661-2.189-7.83-3.379-12.099-3.437h-175.347v0.192l-529.869-0.192z" />
<glyph unicode="&#xe929;" glyph-name="secret-solid" d="M273.778 732.444v-170.665c-62.84 0-113.778-50.941-113.778-113.779v-398.221c0-62.842 50.938-113.779 113.778-113.779h455.112c62.838 0 113.776 50.938 113.776 113.779v398.221c0 62.838-50.938 113.779-113.776 113.779v170.665c0 125.676-101.882 227.556-227.555 227.556s-227.556-101.88-227.556-227.556zM672 732.444v-170.665h-341.334v170.665c0 94.256 76.41 170.667 170.669 170.667s170.666-76.41 170.666-170.667zM558.221 305.779c0-21.056-11.44-39.443-28.442-49.28v-92.944c0-15.706-12.739-28.445-28.445-28.445-15.709 0-28.445 12.739-28.445 28.445v92.944c-17.005 9.837-28.445 28.224-28.445 49.28 0 31.418 25.469 56.886 56.89 56.886 31.418 0 56.886-25.469 56.886-56.886z" />
<glyph unicode="&#xe92a;" glyph-name="secret" d="M512 790.211c-100.285 0-181.584-81.298-181.584-181.584v-61.482c15.152 0.368 32.419 0.368 52.227 0.368h258.717c33.011 0 58.96 0 79.834-1.706 21.274-1.738 38.957-5.344 54.998-13.517 26.288-13.392 47.648-34.758 61.043-61.037 8.173-16.045 11.779-33.728 13.52-55.005 1.702-20.874 1.702-46.822 1.702-79.834v-57.933c0-33.008 0-58.96-1.702-79.83-1.741-21.277-5.347-38.963-13.52-55.005-13.392-26.275-34.755-47.648-61.043-61.037-16.042-8.173-33.725-11.779-54.998-13.517-20.874-1.706-46.822-1.706-79.834-1.706h-258.714c-33.011 0-58.963 0-79.836 1.706-21.275 1.738-38.959 5.344-55.001 13.517-26.284 13.389-47.65 34.758-61.040 61.037-8.174 16.042-11.78 33.728-13.518 55.005-1.705 20.87-1.705 46.822-1.705 79.834v57.926c0 33.011 0 58.963 1.705 79.837 1.738 21.274 5.344 38.96 13.518 55.002 13.391 26.282 34.758 47.648 61.039 61.040 13.25 6.749 27.62 10.384 44.209 12.426v63.91c0 121.494 98.489 219.984 219.983 219.984 90.24 0 167.744-54.329 201.674-131.983 4.246-9.717-0.189-21.036-9.907-25.281-9.715-4.246-21.037 0.189-25.28 9.906-28.042 64.173-92.054 108.958-166.486 108.958zM305.938 507.536c-18.901-1.546-30.97-4.506-40.697-9.459-19.055-9.712-34.548-25.203-44.257-44.259-4.956-9.725-7.916-21.795-9.46-40.698-1.563-19.123-1.578-43.51-1.578-77.562v-56.218c0-34.051 0.015-58.435 1.578-77.562 1.544-18.902 4.504-30.97 9.46-40.698 9.71-19.056 25.203-34.547 44.256-44.253 9.727-4.957 21.797-7.92 40.699-9.462 19.124-1.565 43.508-1.578 77.563-1.578h257.005c34.051 0 58.435 0.013 77.558 1.578 18.902 1.542 30.97 4.502 40.694 9.459 19.056 9.706 34.55 25.2 44.262 44.259 4.957 9.725 7.917 21.792 9.459 40.694 1.565 19.126 1.578 43.51 1.578 77.562v56.218c0 34.051-0.013 58.438-1.578 77.562-1.542 18.902-4.502 30.97-9.459 40.698-9.712 19.056-25.203 34.547-44.259 44.256-9.728 4.957-21.795 7.917-40.698 9.462-19.123 1.562-43.507 1.578-77.558 1.578h-257.005c-34.054 0-58.438-0.016-77.563-1.578zM512 366.806c10.605 0 19.2-8.598 19.2-19.2v-80.314c0-10.602-8.595-19.2-19.2-19.2-10.602 0-19.2 8.598-19.2 19.2v80.314c0 10.602 8.598 19.2 19.2 19.2z" />
<glyph unicode="&#xe92b;" glyph-name="notice" d="M128 919.035c0 0 215.040 92.165 399.357 0.006 123.482-61.743 260.758-40.757 337.92-20.178 38.013 10.138 61.44 20.178 61.44 20.178v-491.517c0 0-215.040-92.154-399.36 0-123.482 61.741-260.755 40.752-337.917 20.176v-511.699h-61.44v983.035zM189.44 875.382v-364.294c17.897 4.33 38.086 8.467 60.008 11.754 83.324 12.496 197.503 13.571 305.388-40.368 76.435-38.214 161.936-39.29 232.211-28.746 31.088 4.662 58.048 11.434 78.23 17.456v364.289c-17.898-4.328-38.086-8.465-60.010-11.753-83.325-12.5-197.504-13.575-305.386 40.366-76.435 38.22-161.936 39.294-232.211 28.753-31.088-4.664-58.048-11.436-78.231-17.458z" />
<glyph unicode="&#xe92c;" glyph-name="all-menu" d="M157.867 716.8h708.268v-25.6h-708.268v25.6zM157.867 460.8h708.268v-25.6h-708.268v25.6zM157.867 204.8h708.268v-25.6h-708.268v25.6z" />
<glyph unicode="&#xe92d;" glyph-name="arrow-short-left" d="M541.341 801.202l-341.956-341.957h666.749v-25.6h-662.383l337.589-337.59-18.102-18.102-370.674 370.675 370.674 370.676 18.102-18.102z" />
<glyph unicode="&#xe92e;" glyph-name="clock-rewind" d="M161.711 462.378l67.744 67.725 18.099-18.106-98.721-98.691-98.668 98.698 18.105 18.099 67.818-67.837c7.499 200.754 172.612 361.201 375.2 361.201 207.366 0 375.469-168.102 375.469-375.467 0-207.363-168.102-375.466-375.469-375.466-137.766 0-258.187 74.205-323.498 184.765l-6.51 11.021 22.041 13.021 6.51-11.021c60.896-103.088 173.114-172.186 301.456-172.186 193.226 0 349.869 156.64 349.869 349.866s-156.643 349.867-349.869 349.867c-188.41 0-342.034-148.929-349.576-335.489zM536.179 662.282v-207.43l125.837-83.894-14.198-21.299-137.238 91.491v221.133h25.6z" />
<glyph unicode="&#xe92f;" glyph-name="flip-backward" d="M359.437 832l-157.868-157.867h395.766c148.454 0 268.8-120.348 268.8-268.799 0-148.454-120.346-268.8-268.8-268.8h-439.468v25.6h439.468c134.314 0 243.2 108.883 243.2 243.2 0 134.314-108.886 243.198-243.2 243.198h-395.766l157.868-157.867-18.102-18.102-188.77 188.77 188.77 188.768 18.102-18.102z" />
<glyph unicode="&#xe930;" glyph-name="flip-forward" d="M682.666 850.101l188.771-188.768-188.771-188.77-18.102 18.102 157.869 157.867h-395.766c-134.315 0-243.199-108.885-243.199-243.198 0-134.317 108.884-243.2 243.199-243.2h439.469v-25.6h-439.469c-148.453 0-268.799 120.346-268.799 268.8 0 148.451 120.346 268.799 268.799 268.799h395.766l-157.869 157.867 18.102 18.102z" />
<glyph unicode="&#xe931;" glyph-name="plus-section" d="M619.12 787.798c9.613 19.616 37.798 18.954 46.48-1.092l47.802-110.377 119.082-16.964c21.626-3.081 29.706-30.092 13.325-44.543l-90.205-79.568 20.666-118.496c3.754-21.52-19.44-37.552-38.246-26.438l-103.549 61.2-106.31-56.269c-5.507-2.915-11.267-3.606-16.579-2.611l-288.959-304.957-18.583 17.61 287.987 303.926c-1.549 4.294-1.962 9.146-0.826 14.237l26.205 117.392-86.368 83.718c-15.683 15.203-6.346 41.805 15.402 43.868l119.747 11.353 52.931 108.011zM642.109 776.532l-52.931-108.011c-3.92-7.995-11.709-13.38-20.573-14.22l-119.747-11.353 86.368-83.719c6.394-6.195 9.107-15.267 7.168-23.958l-26.205-117.392 106.307 56.269c7.869 4.166 17.338 3.942 25.002-0.586l103.552-61.2-20.666 118.493c-1.53 8.771 1.606 17.706 8.285 23.597l90.205 79.571-119.082 16.963c-8.816 1.255-16.346 7.001-19.882 15.171l-47.802 110.377z" />
<glyph unicode="&#xe932;" glyph-name="plus-widget" d="M524.8 802.134v-341.334h341.334v-25.6h-341.334v-341.334h-25.6v341.334h-341.333v25.6h341.333v341.334h25.6z" />
<glyph unicode="&#xe933;" glyph-name="privew" d="M803.347 776.533l-475.149-473.58 18.074-18.131 472.928 471.367v-320.989h25.6v346.504l4.397 4.381-4.397 4.411v11.637h-11.6l-2.077 2.084-2.090-2.084h-349.968v-25.6h324.282zM136.533 750.614h266.033v-25.6h-240.433v-605.548h607.668v244.733h25.6v-270.333h-658.868v656.748z" />
<glyph unicode="&#xe934;" glyph-name="setting" d="M418.877 808.2v-60.971c0-16.499-10.246-30.582-24.483-36.976-17.92-8.050-34.87-17.884-50.621-29.279-12.656-9.156-29.99-10.991-44.285-2.738l-52.863 30.52c-0.050-0.059-0.101-0.118-0.152-0.178-4.35-5.087-10.367-12.243-17.022-20.507-13.428-16.674-29.014-37.317-38.917-54.47s-19.988-40.973-27.714-60.938c-3.829-9.898-7.018-18.685-9.248-24.995-0.026-0.074-0.052-0.147-0.078-0.221l52.858-30.518c14.274-8.24 21.352-24.134 19.783-39.651-0.973-9.622-1.472-19.389-1.472-29.277s0.499-19.658 1.473-29.28c1.57-15.517-5.509-31.411-19.783-39.651l-52.854-30.515c0.026-0.074 0.052-0.147 0.078-0.221 2.23-6.31 5.419-15.101 9.248-24.995 7.726-19.965 17.811-43.786 27.714-60.938 9.903-17.155 25.49-37.798 38.917-54.47 6.655-8.266 12.672-15.421 17.022-20.509 0.051-0.058 0.101-0.118 0.152-0.176l52.861 30.518c14.296 8.253 31.629 6.419 44.285-2.736 15.75-11.395 32.698-21.229 50.618-29.277 14.237-6.394 24.483-20.477 24.483-36.976v-60.979c0.077-0.013 0.15-0.029 0.23-0.042 6.579-1.226 15.786-2.858 26.269-4.49 21.155-3.29 46.826-6.467 66.63-6.467 19.808 0 45.478 3.178 66.634 6.467 10.483 1.632 19.69 3.264 26.269 4.49 0.077 0.013 0.154 0.029 0.23 0.042v60.982c0 16.499 10.243 30.582 24.48 36.976 17.917 8.051 34.861 17.882 50.611 29.277 12.656 9.155 29.987 10.989 44.285 2.736l52.864-30.522c0.051 0.061 0.102 0.118 0.15 0.179 4.352 5.085 10.368 12.24 17.024 20.506 13.427 16.672 29.014 37.318 38.918 54.47 9.901 17.152 19.987 40.973 27.712 60.938 3.83 9.898 7.018 18.685 9.248 24.995 0.026 0.074 0.051 0.147 0.080 0.221l-52.861 30.518c-14.275 8.24-21.354 24.134-19.782 39.651 0.973 9.622 1.472 19.389 1.472 29.277 0 9.885-0.499 19.651-1.472 29.274-1.571 15.517 5.507 31.408 19.782 39.651l52.864 30.518c-0.026 0.074-0.051 0.147-0.077 0.221-2.23 6.31-5.421 15.101-9.251 24.995-7.725 19.965-17.808 43.786-27.712 60.941-9.904 17.151-25.491 37.795-38.918 54.469-6.656 8.264-12.672 15.42-17.021 20.507-0.051 0.060-0.102 0.119-0.154 0.178l-52.864-30.522c-14.298-8.254-31.629-6.419-44.288 2.738-15.747 11.394-32.694 21.227-50.611 29.276-14.237 6.395-24.48 20.477-24.48 36.976v60.977c-0.077 0.014-0.154 0.028-0.23 0.043-6.579 1.224-15.786 2.857-26.269 4.488-21.155 3.292-46.826 6.468-66.634 6.468-19.805 0-45.475-3.176-66.63-6.468-10.483-1.631-19.69-3.264-26.269-4.488-0.080-0.014-0.154-0.028-0.23-0.043zM620.522 831.295c5.949-1.226 10.218-6.463 10.218-12.536v-71.535c0-5.54 3.501-10.987 9.37-13.624 19.523-8.77 37.981-19.482 55.13-31.887 5.21-3.769 11.677-4.081 16.48-1.309l62.010 35.801c5.258 3.036 11.926 1.959 15.965-2.579l0.038-0.045 0.49-0.554 1.459-1.661c1.258-1.441 3.072-3.531 5.312-6.148 4.474-5.231 10.656-12.585 17.504-21.088 13.578-16.859 30.208-38.775 41.149-57.727 10.944-18.952 21.606-44.312 29.418-64.501 3.942-10.179 7.219-19.213 9.51-25.702 1.149-3.248 2.051-5.862 2.669-7.674l0.71-2.093 0.186-0.557 0.051-0.144 0.013-0.042c1.91-5.763-0.483-12.096-5.744-15.133l-62.006-35.802c-4.794-2.768-7.76-8.512-7.114-14.902 1.059-10.477 1.603-21.101 1.603-31.85s-0.544-21.376-1.603-31.853c-0.646-6.39 2.317-12.138 7.114-14.906l62.003-35.798c5.258-3.034 7.661-9.35 5.747-15.114l-0.067-0.205-0.186-0.554-0.71-2.093c-0.618-1.811-1.52-4.429-2.669-7.677-2.294-6.49-5.571-15.52-9.51-25.702-7.811-20.189-18.477-45.546-29.418-64.499-10.944-18.954-27.574-40.867-41.149-57.728-6.848-8.502-13.034-15.856-17.507-21.088-2.237-2.618-4.051-4.707-5.309-6.147l-1.459-1.661-0.387-0.438-0.131-0.15c-4.035-4.538-10.717-5.629-15.978-2.592l-62.006 35.802c-4.803 2.771-11.27 2.461-16.48-1.309-17.149-12.403-35.603-23.117-55.126-31.885-5.869-2.637-9.37-8.083-9.37-13.626v-71.539c0-6.074-4.269-11.312-10.218-12.538l-0.058-0.013-0.154-0.029-0.573-0.118-2.166-0.429c-1.878-0.371-4.595-0.896-7.981-1.526-6.768-1.261-16.227-2.938-27.014-4.618-21.389-3.328-48.685-6.771-70.57-6.771s-49.178 3.443-70.566 6.771c-10.787 1.68-20.25 3.357-27.014 4.618-3.386 0.63-6.102 1.155-7.981 1.526l-2.17 0.429-0.573 0.118-0.15 0.029-0.042 0.010c-5.949 1.226-10.234 6.467-10.234 12.541v71.536c0 5.539-3.501 10.986-9.373 13.622-19.523 8.771-37.984 19.482-55.133 31.888-5.21 3.77-11.679 4.080-16.481 1.309l-62.005-35.798c-5.26-3.037-11.929-1.958-15.965 2.579l-0.143 0.16-0.387 0.438-1.458 1.661c-1.259 1.443-3.073 3.533-5.311 6.15-4.474 5.232-10.657 12.586-17.505 21.088-13.577 16.858-30.207 38.774-41.149 57.728-10.942 18.95-21.607 44.31-29.419 64.499-3.94 10.182-7.217 19.213-9.51 25.702-1.148 3.248-2.051 5.862-2.669 7.674l-0.71 2.093-0.186 0.557-0.062 0.186c-1.912 5.763 0.484 12.096 5.743 15.133l61.997 35.795c4.795 2.768 7.759 8.515 7.113 14.906-1.060 10.477-1.603 21.104-1.603 31.856 0 10.749 0.542 21.376 1.602 31.853 0.646 6.39-2.318 12.138-7.113 14.906l-62.001 35.795c-5.26 3.037-7.661 9.354-5.749 15.117l0.068 0.205 0.186 0.554 0.71 2.093c0.619 1.811 1.522 4.429 2.669 7.674 2.293 6.49 5.571 15.523 9.51 25.706 7.812 20.186 18.476 45.546 29.418 64.499s27.572 40.868 41.15 57.727c6.847 8.503 13.031 15.857 17.505 21.088 2.238 2.617 4.052 4.707 5.311 6.149l1.458 1.661 0.518 0.586c4.036 4.538 10.717 5.629 15.977 2.593l62.006-35.799c4.802-2.772 11.271-2.46 16.481 1.309 17.149 12.407 35.61 23.119 55.136 31.89 5.872 2.636 9.373 8.084 9.373 13.624v71.529c0 6.073 4.266 11.31 10.214 12.536l0.211 0.044 0.573 0.116 2.17 0.432c1.878 0.37 4.595 0.896 7.981 1.525 6.765 1.259 16.227 2.937 27.014 4.615 21.389 3.329 48.682 6.773 70.566 6.773s49.181-3.444 70.57-6.773c10.787-1.679 20.246-3.356 27.014-4.615 3.386-0.63 6.102-1.156 7.981-1.525l2.95-0.592zM512.003 563.2c-63.626 0-115.2-51.578-115.2-115.2s51.574-115.2 115.2-115.2c63.622 0 115.2 51.578 115.2 115.2s-51.578 115.2-115.2 115.2zM371.203 448c0 77.76 63.037 140.8 140.8 140.8 77.76 0 140.8-63.040 140.8-140.8 0-77.763-63.040-140.8-140.8-140.8-77.763 0-140.8 63.037-140.8 140.8z" />
<glyph unicode="&#xe935;" glyph-name="search" d="M418.112 926.528c-75.008-6.72-140.352-28.992-199.296-67.84-90.014-60.203-154.483-152.572-177.186-260.331l-0.478-2.709c-6.272-31.36-7.744-47.36-7.744-83.648-0.014-1.22-0.021-2.66-0.021-4.102 0-64.32 15.329-125.060 42.532-178.767l-1.039 2.261c38.39-77.867 98.097-140.272 171.516-180.941l2.116-1.075c104.64-58.176 237.056-66.56 349.952-22.144 44.329 18.256 82.555 41.524 116.495 69.766l-0.719-0.582c8.448 7.232 12.672 10.304 9.408 6.912l-5.888-6.272 213.184-213.248 22.208 22.144 22.208 22.208-213.248 213.248-5.824-5.504c-3.2-3.008 0.064 1.408 7.296 9.856 27.66 33.221 50.928 71.447 68.104 112.839l1.080 2.937c17.968 44.837 28.389 96.813 28.389 151.223 0 42.635-6.399 83.776-18.289 122.514l0.78-2.954c-46.72 154.688-176.832 266.496-338.496 290.88-20.266 2.311-43.753 3.629-67.548 3.629-6.855 0-13.683-0.109-20.485-0.327l0.994 0.025zM484.352 862.592c113.426-12.811 209.436-77.588 264.773-169.603l0.891-1.597c30.522-50.989 48.57-112.484 48.57-178.195 0-97.125-39.43-185.041-103.156-248.614l-0.007-0.007c-63.563-63.751-151.475-103.195-248.6-103.195-65.722 0-127.226 18.061-179.819 49.491l1.603-0.888c-94.498 56.701-159.637 153.996-171.392 267.153l-0.128 1.519c-0.754 9.653-1.184 20.903-1.184 32.254 0 20.538 1.407 40.747 4.13 60.537l-0.259-2.295c26.633 158.166 155.535 279.413 315.289 294.105l1.383 0.103c9.728 1.408 52.48 0.96 67.904-0.768z" />
<glyph unicode="&#xe936;" glyph-name="info-circle" d="M466.752 910.272c-82.11-8.733-156.175-37.249-219.193-80.653l1.593 1.037c-26.368-18.176-38.72-28.608-64.96-54.848s-36.672-38.592-54.848-64.96c-51.018-73.552-81.503-164.707-81.503-262.981 0-60.481 11.546-118.266 32.555-171.27l-1.1 3.147c19.070-47.064 43.002-87.693 71.952-124.159l-0.784 1.023c86.374-105.815 216.808-172.839 362.896-172.839 14.55 0 28.944 0.665 43.154 1.966l-1.826-0.135c143.764 13.864 266.996 91.29 342.628 203.465l1.052 1.655c74.944 111.36 97.344 255.168 59.968 385.088-18.479 62.629-47.36 117.051-85.019 164.146l0.731-0.946c-22.271 25.557-45.482 48.768-70.186 70.311l-0.854 0.729c-86.144 67.84-187.2 102.848-294.4 101.952-14.923-0.101-29.507-0.727-43.948-1.86l2.092 0.132zM568.32 832.832c170.623-25.902 303.633-159.411 328.511-328.119l0.257-2.121c1.987-16.384 3.12-35.356 3.12-54.592s-1.133-38.207-3.337-56.85l0.217 2.258c-7.678-51.613-24.268-98.055-48.247-139.704l1.015 1.912c-60.352-105.152-161.664-174.144-283.264-192.704-16.384-1.987-35.356-3.12-54.592-3.12s-38.207 1.133-56.85 3.337l2.258-0.217c-121.6 18.56-222.912 87.552-283.264 192.704-22.964 39.737-39.554 86.179-46.965 135.624l-0.267 2.168c-1.987 16.384-3.12 35.356-3.12 54.592s1.133 38.207 3.337 56.85l-0.217-2.258c18.24 119.36 85.248 219.456 187.392 280.128 48.432 28.917 105.849 48.072 167.241 53.276l1.463 0.1c5.579 0.178 12.139 0.279 18.723 0.279 23.457 0 46.612-1.287 69.401-3.795l-2.812 0.251zM498.048 654.528c-8.056-2.22-14.647-7.394-18.673-14.254l-0.079-0.146c-3.328-5.824-3.968-9.344-3.968-21.44 0-12.16 0.64-15.68 4.032-21.568 6.336-11.072 15.040-15.168 32.64-15.168 25.28 0 35.648 8.96 37.12 32.064 1.408 22.208-5.568 35.456-21.312 40.128-4.726 1.175-10.151 1.85-15.734 1.85-4.967 0-9.81-0.534-14.474-1.547l0.448 0.082zM498.048 526.656c-8.044-2.316-14.618-7.516-18.672-14.381l-0.080-0.147-3.968-6.976v-284.992l4.032-7.040c6.336-11.072 15.040-15.168 32.64-15.168s26.304 4.096 32.64 15.168l4.032 7.040v284.992l-4.032 7.104c-5.696 9.984-14.912 14.656-29.952 15.36-1.33 0.093-2.882 0.146-4.446 0.146-4.311 0-8.528-0.402-12.615-1.172l0.421 0.066z" />
<glyph unicode="&#xe937;" glyph-name="warning-triangle" d="M481.28 909.888c-38.158-8.91-70.133-30.94-91.65-60.973l-0.318-0.467c-13.696-19.904-325.952-556.8-330.752-568.64-7.14-16.505-11.293-35.724-11.293-55.914 0-1.020 0.011-2.038 0.032-3.054l-0.002 0.151c-0.003-0.356-0.005-0.778-0.005-1.2 0-43.861 18.775-83.336 48.727-110.829l0.11-0.1c23.488-22.272 54.080-36.288 86.976-39.744 22.592-2.368 636.288-2.24 657.92 0.128 61.12 6.72 110.208 47.424 128.96 106.88 4.225 13.592 6.658 29.219 6.658 45.415 0 21.659-4.352 42.302-12.23 61.101l0.388-1.043c-5.12 12.096-322.112 555.456-332.096 569.152-20.262 27.114-48.488 47.279-81.187 57.119l-1.117 0.289c-13.44 3.712-56 4.736-69.12 1.728zM541.888 829.44c22.72-10.88 15.104 1.088 190.976-300.288 105.664-181.056 161.408-278.144 163.584-284.992 2.56-8.192 3.136-13.76 2.496-27.008-0.64-14.976-1.344-17.92-7.040-29.44-10.516-22.284-31.326-38.195-56.125-41.683l-0.387-0.045c-16.576-2.368-632.704-2.368-647.68 0-14.459 2.741-27.206 8.671-37.957 17.044l0.197-0.148c-9.805 9.242-17.362 20.76-21.839 33.714l-0.177 0.59c-5.248 15.488-4.224 40.896 2.112 54.592 9.472 20.352 320.768 550.656 328.384 559.424 16 18.432 30.592 24.576 56.128 23.744 14.592-0.512 18.56-1.28 27.328-5.504zM495.808 653.376c-7.884-4.143-14.124-10.507-18.004-18.257l-0.108-0.239c-3.008-6.464-3.136-13.504-3.136-122.88s0.128-116.416 3.136-122.88c6.176-12.937 19.154-21.715 34.182-21.715 0.426 0 0.85 0.007 1.272 0.021l-0.061-0.002c16.596 0.573 30.507 11.454 35.567 26.414l0.081 0.274c3.712 12.544 3.712 223.232 0 235.84-3.393 10.153-10.534 18.273-19.741 22.873l-0.227 0.103c-8 4.096-25.6 4.352-32.96 0.448zM494.656 311.424c-12.455-6.502-20.811-19.323-20.811-34.096 0-5.884 1.326-11.458 3.694-16.44l-0.099 0.232c9.28-18.88 33.088-27.392 51.072-18.24 13.087 6.176 21.981 19.263 21.981 34.428 0 15.065-8.778 28.080-21.498 34.209l-0.227 0.099c-4.978 2.064-10.76 3.263-16.822 3.263-6.24 0-12.183-1.27-17.585-3.566l0.294 0.111z" />
<glyph unicode="&#xe938;" glyph-name="filter" d="M608 400v-301.747c0-21.402-10.695-41.387-28.499-53.248l-64-42.667c-42.532-28.356-99.501 2.133-99.501 53.248v344.414l-314.808 423.78c-41.825 56.304-1.638 136.22 68.5 136.22h684.614c70.135 0 110.327-79.917 68.506-136.219l-314.812-423.781z" />
<glyph unicode="&#xe939;" glyph-name="gift-02" horiz-adv-x="1088" d="M319.168 902.912c-10.827-3.035-20.175-6.743-29.026-11.284l0.866 0.404c-33.654-16.922-59.131-45.959-71.006-81.247l-0.29-0.993c-4.16-12.416-4.672-16.832-4.736-41.088-0.128-29.696 2.816-43.712 13.248-63.424l5.312-10.304c0.32-0.64-9.088-1.728-20.864-2.368-47.36-2.624-67.904-10.304-92.096-34.496-17.152-17.088-26.496-33.92-31.296-56.256-2.88-13.312-3.136-34.304-3.136-260.224 0-231.040 0.192-246.592 3.328-261.056 7.68-35.712 28.736-62.72 61.696-78.976 24.64-12.224 4.736-11.584 392.832-11.584s368.192-0.64 392.832 11.584c32.96 16.256 54.016 43.264 61.696 78.976 3.136 14.464 3.328 30.016 3.328 261.056 0 227.136-0.256 246.848-3.136 260.224-4.654 22.34-15.756 41.572-31.245 56.208l-0.051 0.048c-24.448 24.448-44.032 31.808-92.096 34.496-11.776 0.64-21.184 1.728-20.864 2.368l5.312 10.304c10.432 19.776 13.376 33.728 13.248 63.424-0.064 24.192-0.64 28.736-4.736 41.088-12.185 36.306-37.682 65.363-70.552 81.935l-0.808 0.369c-22.656 11.328-37.184 14.080-68.864 12.928-28.224-0.96-42.752-4.224-65.728-14.848-42.688-19.712-84.032-63.040-110.4-115.52-2.384-5.367-5.036-9.971-8.101-14.259l0.165 0.243c-0.512 0-2.304 3.008-4.032 6.72-10.122 20.114-20.607 37.234-32.322 53.404l0.77-1.116c-30.208 40.896-67.904 68.672-109.504 80.64-17.792 5.12-61.952 6.592-79.744 2.624zM379.584 839.232c45.76-11.84 84.288-53.376 112.832-121.664l9.728-23.232-80.192-0.512c-57.728-0.384-82.432 0.064-88.32 1.664-32.533 8.89-56.050 38.182-56.050 72.967 0 12.669 3.12 24.609 8.632 35.095l-0.198-0.414c7.808 15.232 26.944 30.784 44.928 36.48 10.24 3.2 35.52 3.072 48.64-0.384zM767.104 835.52c13.184-6.144 28.928-20.736 34.752-32.128 5.5-10.19 8.733-22.304 8.733-35.173 0-34.062-22.647-62.835-53.705-72.083l-0.532-0.136c-6.592-1.984-25.024-2.496-88.768-2.56h-80.448l1.216 4.992c0.704 2.752 4.864 13.632 9.344 24.192 23.552 56.064 59.008 97.024 96.832 111.936 15.808 6.208 23.232 7.424 42.624 6.976 15.936-0.384 19.52-1.088 29.952-6.016zM512.704 511.68l0.512-117.44h-364.544l0.064 82.048c0.064 91.2 1.28 113.152 6.848 123.904 5.812 9.824 13.869 17.758 23.495 23.259l0.313 0.165c10.24 5.184 32.576 5.888 185.984 5.632l146.88-0.192 0.448-117.376zM882.496 628.224c22.656-1.856 30.784-4.928 41.152-15.616 14.528-14.912 15.552-23.744 15.616-135.424l0.064-82.944h-362.688v235.712h142.784c78.528 0 151.936-0.768 163.072-1.728zM512.704 191.552l0.512-138.304-162.752 0.512c-181.44 0.512-168.384-0.384-183.552 13.312-11.008 9.92-14.4 17.984-16.384 38.4-1.984 19.968-2.496 222.208-0.64 224.128 0.704 0.64 82.496 0.96 181.824 0.704l180.544-0.448 0.448-138.304zM939.264 226.048c0-57.6-0.832-112.256-1.792-121.536-2.048-19.52-5.632-27.712-16.384-37.44-15.168-13.696-2.24-12.8-182.592-13.312l-161.856-0.512v277.504h362.688l-0.064-104.704z" />
<glyph unicode="&#xe93a;" glyph-name="camera-01" d="M381.44 910.4c-23.677-4.551-44.335-15.249-60.898-30.36l0.098 0.088c-16.045-14.136-28.172-32.359-34.776-53.048l-0.232-0.84c-7.168-21.184-13.952-29.824-29.632-37.824-4.8-2.496-12.416-3.328-38.4-4.416-37.184-1.472-51.456-4.416-73.728-15.040-19.136-9.152-33.28-19.072-47.552-33.28-20.343-20.527-35.561-46.167-43.552-74.821l-0.288-1.211-3.84-14.528v-232.96c0-215.808 0.192-234.176 3.008-249.152 7.168-38.336 19.712-63.104 44.672-88.064 23.232-23.232 49.344-37.184 81.152-43.264 24.896-4.736 56.256-5.248 334.528-5.248 288.192 0.064 311.36 0.448 338.304 6.080 59.958 13.585 106.319 59.967 119.671 118.881l0.201 1.055c5.696 27.136 6.272 53.248 5.632 275.072l-0.576 219.328-3.776 13.312c-13.51 48.667-46.952 87.72-90.751 108.49l-1.025 0.438c-22.72 10.688-36.352 13.44-73.28 14.912-25.984 1.088-33.6 1.92-38.4 4.416-16 8.128-22.016 16-30.336 39.616-6.255 18.824-16.673 34.834-30.213 47.561l-0.059 0.055c-13.445 14.119-30.284 24.885-49.213 30.999l-0.835 0.233-13.056 4.48-127.168 0.256c-69.952 0.128-131.008-0.384-135.68-1.216zM630.208 836.032c12.241-3.049 22.509-10.091 29.597-19.636l0.099-0.14c2.944-4.48 7.104-13.312 9.216-19.648 12.349-39.141 42.474-69.392 80.656-81.675l0.88-0.245c10.88-3.52 18.304-4.416 44.672-5.632 17.344-0.768 34.496-2.176 38.144-3.072 22.656-5.824 46.976-25.664 57.28-46.72 10.56-21.504 10.24-13.568 10.304-236.864 0.064-202.304-0.832-240.576-5.824-259.136-6.656-24.832-31.040-49.216-55.936-55.872-19.456-5.184-55.36-5.824-326.464-5.824-271.040 0-308.992 0.704-328.256 5.824-14.578 4.552-26.961 12.593-36.614 23.168l-0.058 0.064c-10.23 10.477-17.603 23.786-20.832 38.642l-0.096 0.526c-2.752 11.776-3.072 30.272-3.712 232.128-0.512 163.648-0.192 222.336 1.344 231.232 4.608 27.392 23.936 53.824 48 65.6 16.128 7.872 20.8 8.704 56.064 10.304 26.368 1.216 33.792 2.112 44.672 5.632 20.288 6.528 34.752 15.488 50.048 30.976 15.552 15.68 24.448 29.888 30.848 49.152 2.432 7.36 6.912 16.96 9.856 21.44 5.632 8.384 19.968 18.368 28.224 19.648 7.488 1.152 230.976 1.28 237.888 0.128zM494.080 633.856c-84.774-7.347-154.435-64.717-179.745-142.15l-0.415-1.466c-34.112-104.384 21.248-219.392 124.352-258.176 21.831-8.366 47.082-13.211 73.466-13.211 37.957 0 73.572 10.028 104.339 27.58l-1.037-0.545c94.4 54.72 131.456 171.136 85.44 268.48-33.575 71.609-105.059 120.315-187.919 120.315-6.507 0-12.943-0.3-19.296-0.888l0.815 0.061zM541.184 556.352c46.272-9.728 85.76-47.232 99.136-94.144 5.44-19.008 5.44-52.032 0-71.040-13.376-46.912-52.864-84.416-99.136-94.144-8.782-1.593-18.89-2.504-29.211-2.504-10.187 0-20.168 0.888-29.867 2.589l1.030-0.15c-46.72 9.792-86.016 47.040-99.456 94.208-2.593 10.671-4.080 22.922-4.080 35.52s1.487 24.849 4.295 36.587l-0.215-1.067c13.248 46.464 52.48 84.032 98.176 94.080 14.528 3.2 44.352 3.2 59.328 0.064z" />
<glyph unicode="&#xe93b;" glyph-name="edit-02" d="M785.728 903.616c-27.939-5.32-52.592-16.652-73.508-32.628l0.42 0.308c-15.616-12.608-598.72-596.992-605.056-606.464-7.859-11.89-13.97-25.741-17.547-40.581l-0.181-0.891c-3.712-16.512-21.952-178.944-21.12-187.584 1.664-16.128 11.136-26.24 27.904-29.824 7.552-1.6 20.864-0.512 93.632 7.616 42.993 4.405 76.227 8.744 109.216 13.825l-12.128-1.537c15.731 3.758 29.582 9.869 41.962 18.031l-0.49-0.303c10.048 6.72 592.64 588.16 606.144 604.928 11.776 14.592 22.592 35.84 28.736 56.32 4.096 13.824 4.544 18.112 4.544 41.856 0 23.68-0.448 28.032-4.544 41.792-15.512 53.999-57.208 95.653-110.1 110.826l-1.132 0.278c-17.152 4.864-50.688 6.976-66.752 4.032zM845.312 821.376c17.984-8.576 31.488-22.080 40.064-40.064 6.272-13.184 6.336-13.504 6.336-34.624 0-21.184 0-21.44-6.464-35.008-6.272-13.056-9.024-16.128-61.888-69.12l-55.296-55.488-116.992 116.992 55.488 55.232c68.032 67.776 70.912 69.632 106.688 68.8 17.728-0.384 19.52-0.768 32.064-6.72zM656.192 591.36l58.048-58.048-212.416-212.352c-148.928-148.992-214.784-213.76-220.48-216.832-7.36-4.032-13.888-5.056-68.992-11.264-33.408-3.776-61.184-6.528-61.568-6.080 1.717 24.772 3.856 45.922 6.598 66.883l-0.582-5.443c5.568 49.344 7.552 62.016 10.496 67.968 2.624 5.184 67.2 70.976 216.448 220.288 116.992 117.12 213.12 212.928 213.568 212.928 0.512 0 27.008-26.112 58.88-58.048z" />
<glyph unicode="&#xe93c;" glyph-name="trash-03" horiz-adv-x="896" d="M350.592 910.656c-14.4-1.6-29.44-5.312-39.424-9.664-32.652-15.024-56.964-43.406-66.179-77.95l-0.189-0.834c-2.688-11.136-5.696-47.936-5.824-72.32l-0.064-7.808-93.696-0.448c-104.576-0.448-101.248-0.128-110.784-10.944-5.632-6.464-7.552-13.504-7.552-27.968 0-17.408 4.544-26.176 17.152-32.96 5.44-2.88 8.96-3.264 36.608-3.968l30.592-0.704 0.832-265.088c0.832-278.016 0.64-270.528 7.552-298.688 8.64-34.944 33.536-69.12 65.92-90.176 24.768-16.192 49.28-23.488 87.744-26.24 28.736-1.984 320.704-1.984 349.44 0 38.144 2.752 62.976 10.112 87.168 25.856 32.832 21.376 57.856 55.424 66.496 90.56 6.912 28.16 6.72 20.672 7.552 298.688l0.832 265.088 30.592 0.704c27.84 0.704 31.168 1.088 36.8 4.096 12.416 6.592 16.96 15.68 16.96 33.984 0 18.752-4.992 28.224-17.856 34.24-6.656 3.072-8.96 3.136-100.48 3.52l-93.696 0.448-0.064 7.808c-0.128 23.424-3.2 61.184-5.888 72.32-8.768 36.288-38.144 69.12-72.576 81.216-21.504 7.552-23.68 7.68-123.072 8.128-9.070 0.115-19.782 0.181-30.51 0.181-26.158 0-52.224-0.391-78.194-1.167l3.808 0.090zM542.976 834.432c11.632-1.915 21.506-8.264 28.010-17.22l0.086-0.124c6.976-9.536 8.448-17.216 9.408-48.64l0.832-26.496h-266.24l0.064 18.304c0 24.448 2.304 43.712 6.144 51.136 5.774 11.647 16.511 20.087 29.368 22.613l0.264 0.043c11.136 2.368 178.624 2.688 192.064 0.384zM708.608 408.96c0-265.28-0.128-270.016-6.016-290.176-5.376-18.24-23.424-39.488-41.088-48.448-20.8-10.496-11.712-10.048-213.504-10.048s-192.704-0.448-213.504 10.048c-15.414 8.791-27.771 21.373-36.045 36.506l-0.243 0.486c-10.88 21.632-10.368 8.32-11.072 296.96-0.384 141.504-0.32 258.304 0.128 259.456 0.704 1.792 38.976 2.048 261.056 1.728l260.288-0.384v-256.128zM353.088 506.048c-13.568-2.048-22.848-9.344-25.984-20.608-1.024-3.584-1.536-47.104-1.536-123.968 0-128-0.256-124.224 7.872-132.928 7.040-7.616 14.144-9.984 29.44-9.984 12.352 0 15.040 0.512 20.864 3.712 7.376 4.219 12.806 11.131 14.99 19.364l0.050 0.22c0.96 3.712 1.344 46.912 1.088 124.096l-0.384 118.4-4.096 6.912c-1.987 3.539-4.463 6.545-7.38 9.051l-0.044 0.037c-7.872 5.12-22.656 7.552-34.88 5.696zM523.712 505.984c-10.88-1.856-17.664-6.080-22.72-14.144l-4.48-7.232-0.384-118.528c-0.256-77.312 0.128-120.512 1.088-124.224 2.234-8.453 7.664-15.365 14.886-19.503l0.154-0.081c5.824-3.2 8.512-3.712 20.864-3.712 11.776 0 15.232 0.576 20.352 3.264 7.299 3.752 12.811 10.117 15.362 17.83l0.062 0.218c2.112 7.744 2.112 237.952 0 245.632-4.352 15.616-23.232 24.128-45.184 20.48z" />
<glyph unicode="&#xe93f;" glyph-name="shopping-bag-01" d="M494.080 905.408c-88.128-7.744-163.648-74.816-180.16-160l-2.048-10.688-16.384-0.064c-67.456-0.192-115.712-26.048-145.984-78.272-12.16-20.928-17.664-42.304-23.104-89.792-3.008-26.048-28.16-292.672-34.432-364.352-2.688-30.464-2.624-69.44 0.128-85.312 10.376-55.631 49.88-100.011 101.774-117.196l1.074-0.308c8.541-2.463 19.23-4.763 30.132-6.408l1.484-0.184c18.624-2.88 39.296-3.072 285.44-3.072s266.816 0.192 285.44 3.072c23.168 3.52 38.784 8 53.312 15.232 40.384 20.224 71.744 60.608 80 103.104 6.72 34.688 6.592 36.288-15.232 270.272-20.48 219.648-20.928 222.976-30.72 252.16-14.016 41.792-52.288 79.168-94.592 92.352-17.6 5.44-29.824 7.36-54.464 8.512l-22.976 1.088-3.648 14.528c-25.088 99.456-114.624 164.16-215.040 155.328zM553.792 836.48c22.592-7.36 37.312-16.704 55.68-35.008 17.216-17.28 26.112-30.848 33.408-50.944 2.176-5.952 3.968-11.584 3.968-12.48 0-1.024-50.368-1.6-134.848-1.6s-134.848 0.576-134.848 1.6c0 3.904 8.448 24.256 14.528 35.136 8.896 16 35.264 42.496 50.88 51.072 26.176 14.464 41.664 18.112 73.728 17.344 20.16-0.512 25.984-1.344 37.504-5.12zM308.928 624.704c0-27.776 0.768-50.432 1.856-55.616 5.952-27.712 42.944-33.344 58.176-8.832 3.84 6.208 3.968 7.36 4.48 58.816l0.512 52.48h276.288l0.064-47.36c0-26.304 0.832-50.752 1.792-54.976 3.584-15.552 15.168-24.448 31.744-24.32 0.153-0.003 0.334-0.005 0.516-0.005 10.732 0 20.113 5.78 25.202 14.396l0.074 0.136 4.608 6.912 0.512 52.864 0.576 52.864 18.24-0.96c23.168-1.28 34.24-3.712 47.936-10.368 13.248-6.464 31.424-23.808 38.144-36.416 10.944-20.416 12.288-30.528 32.768-250.56 18.56-199.36 18.496-198.528 17.664-227.904-0.704-24.512-0.768-25.088-7.040-38.208-4.693-10.031-10.98-18.55-18.633-25.614l-0.055-0.050c-11.371-12.281-26.455-20.976-43.461-24.301l-0.507-0.083c-11.84-2.752-32.32-3.008-288.384-3.008s-276.544 0.256-288.384 3.008c-17.38 3.323-32.348 11.963-43.532 24.135l-0.052 0.057c-20.928 21.184-26.432 36.224-26.432 71.744 0.064 26.496 0.96 37.376 19.648 237.312 19.072 203.2 20.224 212.416 29.632 230.784 9.344 18.304 31.808 37.76 50.56 43.84 11.136 3.584 25.792 5.632 42.24 5.888l13.248 0.192v-46.848z" />
<glyph unicode="&#xe940;" glyph-name="arrow-right-up" d="M311.206 629.594c-10.604 0-19.2 8.595-19.2 19.201 0 10.604 8.596 19.2 19.2 19.2h401.572c10.602 0 19.2-8.596 19.2-19.2v-401.572c0-10.602-8.598-19.2-19.2-19.2-10.605 0-19.2 8.598-19.2 19.2v355.219l-368.797-368.794c-7.497-7.498-19.653-7.498-27.152 0s-7.498 19.654 0 27.152l368.793 368.794h-355.217z" />
<glyph unicode="&#xe941;" glyph-name="arrow-up-right" d="M289.195 684.544c-7.525-3.83-13.105-10.567-15.312-18.694l-0.048-0.207c-2.133-11.179 5.461-23.808 16.853-28.075 3.285-1.28 63.104-1.835 189.397-1.835h184.661l-194.901-194.987c-172.16-172.245-194.987-195.712-195.968-201.259-3.243-17.963 15.019-34.475 31.915-28.885 4.096 1.323 59.691 55.893 199.381 195.584l193.707 193.707 0.853-186.752c0.853-185.301 0.896-186.795 4.352-191.488 6.315-8.448 12.288-11.733 21.248-11.733s14.933 3.285 21.248 11.733c3.499 4.736 3.499 5.163 3.499 226.347s0 221.611-3.499 226.347c-2.472 3.062-5.173 5.763-8.133 8.155l-0.102 0.080c-4.693 3.499-5.504 3.499-224.341 3.883-179.968 0.299-220.544-0.043-224.811-1.92z" />
<glyph unicode="&#xe942;" glyph-name="chevron-down" d="M239.808 610.304c-12.848-6.409-21.518-19.457-21.518-34.53 0-5.789 1.279-11.279 3.569-16.203l-0.099 0.237c4.544-9.728 266.432-271.104 275.264-274.752 4.464-1.583 9.613-2.498 14.976-2.498s10.512 0.915 15.299 2.597l-0.323-0.099c8.832 3.648 270.72 265.024 275.264 274.752 2.069 4.688 3.274 10.154 3.274 15.901 0 10.857-4.298 20.71-11.285 27.951l0.011-0.012c-7.131 6.175-16.499 9.937-26.745 9.937-5.2 0-10.174-0.969-14.751-2.736l0.28 0.095c-4.416-1.856-41.664-37.952-123.712-119.936l-117.312-117.248-117.312 117.248c-82.048 81.984-119.296 118.080-123.712 119.936-4.386 1.569-9.446 2.475-14.718 2.475-5.921 0-11.575-1.144-16.753-3.223l0.303 0.107z" />
<glyph unicode="&#xe943;" glyph-name="x" horiz-adv-x="1088" d="M315.52 696c-13.387-5.923-22.559-19.089-22.559-34.398 0-4.201 0.691-8.24 1.964-12.011l-0.078 0.264c2.752-9.536 6.4-13.44 98.752-106.048l95.872-96.064-95.872-96.128c-92.416-92.608-96-96.448-98.752-105.984-7.296-24.704 9.984-49.088 34.688-49.024 17.856 0 14.656-2.688 117.888 100.288l96.576 96.32 96.576-96.32c103.232-102.976 100.032-100.288 117.888-100.288 24.704-0.064 41.984 24.32 34.688 49.024-2.752 9.536-6.4 13.376-98.752 105.984l-95.936 96.128 95.104 95.232c69.056 69.184 95.872 97.152 98.112 102.4 1.91 4.55 3.020 9.839 3.020 15.386 0 11.109-4.451 21.179-11.666 28.524l0.006-0.006c-7.041 5.931-16.212 9.535-26.225 9.535-5.3 0-10.365-1.010-15.011-2.848l0.277 0.096c-4.672-1.92-36.48-32.448-102.4-98.304l-95.68-95.552-95.68 95.552c-65.92 65.856-97.728 96.384-102.4 98.304-4.497 1.668-9.691 2.634-15.112 2.634-5.486 0-10.741-0.989-15.597-2.798l0.309 0.101z" />
<glyph unicode="&#xe944;" glyph-name="calendar" d="M331.947 897.963c-6.522-3.2-11.576-8.557-14.307-15.124l-0.071-0.194c-1.067-2.773-1.835-18.091-1.835-36.267v-31.445l-16.64-0.043c-25.771-0.043-64.811-2.944-78.549-5.845-56.46-12.091-100.165-55.796-112.085-111.304l-0.171-0.952c-5.035-23.893-5.803-63.616-5.803-291.456s0.768-267.563 5.803-291.456c12.091-56.46 55.796-100.165 111.304-112.085l0.952-0.171c23.893-5.035 63.616-5.803 291.456-5.803s267.563 0.768 291.456 5.803c56.46 12.091 100.165 55.796 112.085 111.304l0.171 0.952c5.035 23.893 5.803 63.616 5.803 291.456s-0.768 267.563-5.803 291.456c-12.091 56.46-55.796 100.165-111.304 112.085l-0.952 0.171c-13.696 2.901-52.779 5.803-78.464 5.845l-16.512 0.043-0.555 34.005c-0.555 37.248-0.853 38.443-12.245 46.976-6.443 4.779-19.584 4.779-26.027 0-11.392-8.533-11.691-9.728-12.245-46.976l-0.555-34.005h-289.707l-0.555 34.005c-0.469 31.232-0.811 34.389-4.011 38.741-8.107 10.795-20.48 14.976-30.635 10.283zM316.075 729.728c0.555-37.248 0.853-38.443 12.245-46.976 6.443-4.779 19.584-4.779 26.027 0 11.392 8.533 11.691 9.728 12.245 46.976l0.555 34.005h289.707l0.555-34.005c0.555-37.248 0.853-38.443 12.245-46.976 6.443-4.779 19.584-4.779 26.027 0 11.392 8.533 11.691 9.685 12.245 47.232l0.555 34.261 36.139-1.067c35.072-1.024 54.443-3.456 65.195-8.192 18.987-8.363 37.504-25.515 47.445-43.947 10.197-18.944 11.563-29.013 12.629-94.507l0.939-57.6h-717.611l0.896 57.6c1.109 70.528 2.432 78.891 16 100.48 10.197 16.171 28.715 31.787 45.781 38.528 6.272 2.475 23.595 5.675 38.4 7.083 3.285 0.299 18.389 0.683 33.621 0.853l27.605 0.256 0.555-34.005zM869.931 322.133c-0.597-163.712-0.981-187.051-3.456-198.059-8.888-36.891-37.768-65.258-74.274-73.267l-0.649-0.119c-12.971-2.645-36.224-2.901-278.699-2.901-277.717 0-278.272 0-296.96 7.381-21.76 8.533-43.648 29.952-53.547 52.352-7.509 17.067-7.595 19.371-8.277 214.613l-0.64 185.6h717.141l-0.64-185.6z" />
<<<<<<< HEAD
<glyph unicode="&#xe945;" glyph-name="download-01" d="M502.613 855.296c-6.522-3.2-11.576-8.557-14.307-15.124l-0.071-0.194c-1.28-3.285-1.835-75.221-1.835-232.064v-227.285l-88.32 88.192c-77.056 76.928-89.131 88.32-94.592 89.301-17.963 3.243-34.475-15.019-28.885-31.957 1.323-4.053 33.835-37.589 114.091-117.76 121.643-121.472 116.523-117.077 130.475-112.469 4.053 1.323 37.589 33.835 117.76 114.091 98.261 98.389 112.213 112.981 113.195 118.485 3.243 17.963-15.019 34.475-31.915 28.885-4.011-1.323-31.189-27.349-92.715-88.917l-87.040-87.040-0.853 229.419c-0.853 228.395-0.853 229.461-4.352 234.155-8.107 10.795-20.48 14.976-30.635 10.283zM118.613 343.296c-6.522-3.2-11.576-8.557-14.307-15.124l-0.071-0.194c-2.304-6.016-2.389-99.669-0.171-134.272 0.896-13.611 2.773-30.336 4.224-37.163 12.091-56.46 55.796-100.165 111.304-112.085l0.952-0.171c23.893-5.035 63.616-5.803 291.456-5.803s267.563 0.768 291.456 5.803c56.46 12.091 100.165 55.796 112.085 111.304l0.171 0.952c4.053 19.243 6.144 63.787 5.547 120.235-0.469 48.939-0.683 51.755-4.011 56.235-6.315 8.448-12.288 11.733-21.248 11.733s-14.933-3.285-21.248-11.733c-3.371-4.565-3.541-7.509-4.523-78.421-0.811-57.899-1.621-76.544-3.797-87.040-8.387-37.334-37.432-66.151-74.242-74.082l-0.638-0.115c-12.971-2.645-36.224-2.901-278.699-2.901-277.717 0-278.272 0-296.96 7.381-23.040 9.003-45.995 32.256-54.272 54.912-5.888 16.128-6.827 28.245-7.851 101.845-0.981 70.912-1.152 73.856-4.523 78.421-8.107 10.795-20.48 14.976-30.635 10.283z" />
<glyph unicode="&#xe946;" glyph-name="link-01" d="M665.6 865.963c-28.704-3.796-54.728-11.835-78.637-23.53l1.496 0.661c-28.757-14.080-42.368-24.747-85.589-67.371-22.357-22.101-41.771-42.24-43.093-44.757-1.456-3.429-2.303-7.417-2.303-11.602 0-4.302 0.894-8.395 2.507-12.103l-0.076 0.196c3.802-6.415 10.012-11.062 17.355-12.723l0.181-0.034c11.605-2.517 16.171 0.811 58.453 42.539 41.899 41.301 52.608 49.792 78.635 62.293 48.299 23.125 111.531 22.528 160.299-1.579 21.461-10.581 32-18.261 50.432-36.693s26.112-28.971 36.693-50.432c24.491-49.536 24.747-112.171 0.683-162.048-11.989-24.875-20.437-35.456-62.251-77.739-40.875-41.387-44.203-45.995-41.685-57.6 1.695-7.524 6.342-13.734 12.632-17.467l0.125-0.069c6.187-3.2 17.493-3.243 23.509-0.128 2.517 1.323 22.656 20.736 44.757 43.093 42.667 43.264 53.376 56.917 67.328 85.589 15.314 30.5 24.281 66.463 24.281 104.519 0 28.744-5.115 56.293-14.484 81.787l0.529-1.645c-8.613 24.834-20.555 46.339-35.553 65.317l0.353-0.464c-44.19 57.092-112.734 93.494-189.78 93.494-9.441 0-18.755-0.547-27.911-1.61l1.114 0.105zM651.093 620.501c-1.877-0.853-72.917-71.125-157.867-156.16l-154.453-154.581v-11.051c0-10.539 0.299-11.392 6.443-17.493 6.101-6.144 6.955-6.443 17.493-6.443h11.051l311.467 311.467v11.051c0 10.496-0.341 11.435-6.272 17.365-5.419 5.419-7.552 6.357-15.36 6.827-1.026 0.102-2.217 0.16-3.421 0.16-3.226 0-6.355-0.416-9.335-1.198l0.255 0.057zM227.84 499.413c-2.816-1.749-22.784-21.12-44.416-43.093-41.728-42.411-52.651-56.32-66.475-84.779-15.314-30.5-24.281-66.463-24.281-104.519 0-28.744 5.115-56.293 14.484-81.787l-0.529 1.645c19.285-53.248 56.704-98.432 104.149-125.781 34.381-20.377 75.782-32.418 119.996-32.418 38.141 0 74.189 8.961 106.154 24.892l-1.382-0.624c29.056 14.123 42.197 24.533 87.296 69.12 41.515 41.045 42.411 42.069 43.307 49.835 0.469 4.352 0.427 9.856-0.171 12.203-2.675 7.937-8.888 14.038-16.713 16.505l-0.183 0.050c-13.952 3.755-16.853 1.749-60.971-41.813-41.899-41.387-52.565-49.877-78.635-62.379-48.299-23.125-111.531-22.528-160.299 1.579-21.461 10.581-32 18.261-50.432 36.693s-26.112 28.971-36.693 50.432c-24.107 48.768-24.704 112-1.579 160.299 12.501 26.027 20.992 36.736 62.293 78.635 41.685 42.24 45.013 46.805 42.581 58.453-1.218 7.186-5.511 13.176-11.451 16.665l-0.112 0.061c-7.040 4.267-19.157 4.352-25.941 0.128z" />
=======
>>>>>>> master
</font>
</defs>
</svg>
